<svg version="1.1" preserveAspectRatio="none" xmlns="http://www.w3.org/2000/svg" width="500" height="500" viewBox="0 0 500 500"><rect width="100%" height="100%" fill="#FFFFFF" fill-opacity="1"/><svg viewBox="312.833 268.3013 308.7425 217.5" width="333" height="234.58869446221365" x="83.5px" y="132.7057px" xmlns="http://www.w3.org/2000/svg" xmlns:xlink="http://www.w3.org/1999/xlink" preserveAspectRatio="none"><defs></defs><style>.companyName {fill:#285380;fill-opacity:1;}.icon3 {fill:#E7A0AE;fill-opacity:1;}.icon3-str {stroke:#E7A0AE;stroke-opacity:1;}.shape {fill:#F9E9ED;fill-opacity:1;}.text {fill:#285380;fill-opacity:1;}</style><g opacity="1" transform="rotate(0 345.876 268.3013)">
<svg width="242.6566" height="217.5" x="345.876" y="268.3013" version="1.1" preserveAspectRatio="none" viewBox="5.976081848144531 15.80335807800293 188.02392578125 168.53155517578125">
  <g transform="matrix(1 0 0 1 0 0)" ><g><path d="M91.052 173.189C119.033 208.059 194 154.166 194 107.109 194 72.067 160 19 113.041 16 71.147 13.324 9.093 38.026 6.094 86.084S58 132 91.052 173.189z" data-color="1" class="shape"></path></g></g>
</svg>
</g><g opacity="1" transform="rotate(0 427.231 435.5513)">
<svg width="79.9465" height="15" x="427.231" y="435.5513" version="1.1" preserveAspectRatio="none" viewBox="4.2 -28.32 152.64000000000001 28.64">
  <g transform="matrix(1 0 0 1 0 0)" class="text"><path id="id-6izo4zJp5" d="M23.04-14.52Q25.48-13.84 26.88-12.06Q28.28-10.28 28.28-7.56L28.28-7.56Q28.28-3.92 25.54-1.96Q22.80 0 17.56 0L17.56 0L4.20 0L4.20-28L16.76-28Q21.56-28 24.18-26.08Q26.80-24.16 26.80-20.76L26.80-20.76Q26.80-18.56 25.78-16.96Q24.76-15.36 23.04-14.52L23.04-14.52ZM16.40-24.76L8.20-24.76L8.20-15.80L16.40-15.80Q19.48-15.80 21.14-16.94Q22.80-18.08 22.80-20.28L22.80-20.28Q22.80-22.48 21.14-23.62Q19.48-24.76 16.40-24.76L16.40-24.76ZM17.40-3.24Q20.80-3.24 22.52-4.36Q24.24-5.48 24.24-7.88L24.24-7.88Q24.24-12.56 17.40-12.56L17.40-12.56L8.20-12.56L8.20-3.24L17.40-3.24Z M49.12 0.32Q44.88 0.32 41.48-1.54Q38.08-3.40 36.14-6.68Q34.20-9.96 34.20-14L34.20-14Q34.20-18.04 36.14-21.32Q38.08-24.60 41.48-26.46Q44.88-28.32 49.12-28.32L49.12-28.32Q53.32-28.32 56.72-26.46Q60.12-24.60 62.04-21.34Q63.96-18.08 63.96-14L63.96-14Q63.96-9.92 62.04-6.66Q60.12-3.40 56.72-1.54Q53.32 0.32 49.12 0.32L49.12 0.32ZM49.12-3.24Q52.20-3.24 54.66-4.64Q57.12-6.04 58.54-8.50Q59.96-10.96 59.96-14L59.96-14Q59.96-17.04 58.54-19.50Q57.12-21.96 54.66-23.36Q52.20-24.76 49.12-24.76L49.12-24.76Q46.04-24.76 43.54-23.36Q41.04-21.96 39.62-19.50Q38.20-17.04 38.20-14L38.20-14Q38.20-10.96 39.62-8.50Q41.04-6.04 43.54-4.64Q46.04-3.24 49.12-3.24L49.12-3.24Z M84.72 0.32Q80.48 0.32 77.08-1.54Q73.68-3.40 71.74-6.68Q69.80-9.96 69.80-14L69.80-14Q69.80-18.04 71.74-21.32Q73.68-24.60 77.08-26.46Q80.48-28.32 84.72-28.32L84.72-28.32Q88.92-28.32 92.32-26.46Q95.72-24.60 97.64-21.34Q99.56-18.08 99.56-14L99.56-14Q99.56-9.92 97.64-6.66Q95.72-3.40 92.32-1.54Q88.92 0.32 84.72 0.32L84.72 0.32ZM84.72-3.24Q87.80-3.24 90.26-4.64Q92.72-6.04 94.14-8.50Q95.56-10.96 95.56-14L95.56-14Q95.56-17.04 94.14-19.50Q92.72-21.96 90.26-23.36Q87.80-24.76 84.72-24.76L84.72-24.76Q81.64-24.76 79.14-23.36Q76.64-21.96 75.22-19.50Q73.80-17.04 73.80-14L73.80-14Q73.80-10.96 75.22-8.50Q76.64-6.04 79.14-4.64Q81.64-3.24 84.72-3.24L84.72-3.24Z M127.52 0L116.80-12.44L111.68-7.24L111.68 0L107.68 0L107.68-28L111.68-28L111.68-12.36L126.88-28L131.44-28L119.48-15.40L132.20 0L127.52 0Z M146 0.32Q142.84 0.32 139.90-0.66Q136.96-1.64 135.28-3.20L135.28-3.20L136.76-6.32Q138.36-4.88 140.86-3.98Q143.36-3.08 146-3.08L146-3.08Q149.48-3.08 151.20-4.26Q152.92-5.44 152.92-7.40L152.92-7.40Q152.92-8.84 151.98-9.74Q151.04-10.64 149.66-11.12Q148.28-11.60 145.76-12.20L145.76-12.20Q142.60-12.96 140.66-13.72Q138.72-14.48 137.34-16.06Q135.96-17.64 135.96-20.32L135.96-20.32Q135.96-22.56 137.14-24.36Q138.32-26.16 140.72-27.24Q143.12-28.32 146.68-28.32L146.68-28.32Q149.16-28.32 151.56-27.68Q153.96-27.04 155.68-25.84L155.68-25.84L154.36-22.64Q152.60-23.76 150.60-24.34Q148.60-24.92 146.68-24.92L146.68-24.92Q143.28-24.92 141.58-23.68Q139.88-22.44 139.88-20.48L139.88-20.48Q139.88-19.04 140.84-18.14Q141.80-17.24 143.22-16.74Q144.64-16.24 147.08-15.68L147.08-15.68Q150.24-14.92 152.16-14.16Q154.08-13.40 155.46-11.84Q156.84-10.28 156.84-7.64L156.84-7.64Q156.84-5.44 155.64-3.62Q154.44-1.80 152-0.74Q149.56 0.32 146 0.32L146 0.32Z"/></g>
</svg>
</g><g opacity="1" transform="rotate(0 312.833 305.5513)">
<svg width="308.7425" height="100" x="312.833" y="305.5513" version="1.1" preserveAspectRatio="none" viewBox="-1.32 -28.32 89.16 28.88">
  <g transform="matrix(1 0 0 1 0 0)" class="companyName"><path id="id-D6z1nYkh4" d="M27.64-28.20Q31.08-28.20 32.80-28.32L32.80-28.32L32.60-27.52Q31.12-27.44 30.42-27.20Q29.72-26.96 29.30-26.28Q28.88-25.60 28.48-24.08L28.48-24.08L23.20-4.24Q22.84-2.72 22.84-2.28L22.84-2.28Q22.84-1.44 23.42-1.16Q24-0.88 25.56-0.80L25.56-0.80L25.40 0Q23.72-0.12 20.28-0.12L20.28-0.12Q17.08-0.12 15.20 0L15.20 0L15.36-0.80Q16.80-0.88 17.52-1.12Q18.24-1.36 18.66-2.04Q19.08-2.72 19.48-4.24L19.48-4.24L22.04-13.84L9.20-13.84L6.64-4.24Q6.28-2.72 6.28-2.28L6.28-2.28Q6.28-1.44 6.86-1.16Q7.44-0.88 9-0.80L9-0.80L8.84 0Q7-0.12 3.76-0.12L3.76-0.12Q0.40-0.12-1.32 0L-1.32 0L-1.12-0.80Q0.28-0.88 0.98-1.12Q1.68-1.36 2.10-2.06Q2.52-2.76 2.92-4.24L2.92-4.24L8.20-24.08Q8.52-25.44 8.52-26L8.52-26Q8.52-26.88 7.94-27.16Q7.36-27.44 5.84-27.52L5.84-27.52L6.04-28.32Q7.68-28.20 11.12-28.20L11.12-28.20Q14.32-28.20 16.24-28.32L16.24-28.32L16.04-27.52Q14.56-27.44 13.86-27.20Q13.16-26.96 12.74-26.28Q12.32-25.60 11.92-24.08L11.92-24.08L9.40-14.64L22.24-14.64L24.76-24.08Q25.12-25.36 25.12-26L25.12-26Q25.12-26.88 24.52-27.16Q23.92-27.44 22.40-27.52L22.40-27.52L22.60-28.32Q24.40-28.20 27.64-28.20L27.64-28.20Z M46.88-5.04L47.36-6.52L48.12-6.52L47.12-3.60Q46.32-1.40 45.08-0.42Q43.84 0.56 42.52 0.56L42.52 0.56Q41.76 0.56 41.20 0.28Q40.64 0 40.32-0.48L40.32-0.48Q39.96-1.08 39.96-1.88L39.96-1.88Q39.96-2.72 40.24-3.76Q40.52-4.80 40.60-5.08L40.60-5.08L41.32-7.96Q39.40-3.48 37.42-1.46Q35.44 0.56 33.28 0.56L33.28 0.56Q31.44 0.56 30.48-0.76Q29.52-2.08 29.52-4.28L29.52-4.28Q29.52-7.52 31.24-11.52Q32.96-15.52 35.72-18.32Q38.48-21.12 41.32-21.12L41.32-21.12Q42.40-21.12 43.08-20.32Q43.76-19.52 43.88-18.08L43.88-18.08L44.52-20.56Q46.72-20.64 48.20-21.12L48.20-21.12L43.20-3.44Q43.16-3.28 43.04-2.82Q42.92-2.36 42.92-1.96L42.92-1.96Q42.92-0.96 43.80-0.96L43.80-0.96Q45.56-0.96 46.88-5.04L46.88-5.04ZM34.44-0.72Q35.56-0.72 37.12-2.44Q38.68-4.16 40.18-7.02Q41.68-9.88 42.64-13.12L42.64-13.12L43.36-15.96Q43.40-16.28 43.40-16.84L43.40-16.84Q43.40-18.48 42.82-19.42Q42.24-20.36 41.20-20.36L41.20-20.36Q39.48-20.36 37.56-17.70Q35.64-15.04 34.34-11.14Q33.04-7.24 33.04-3.80L33.04-3.80Q33.04-2.16 33.40-1.44Q33.76-0.72 34.44-0.72L34.44-0.72Z M65.88-21.12Q66.96-21.12 67.60-20.48Q68.24-19.84 68.24-18.84L68.24-18.84Q68.24-17.64 67.40-16.80Q66.56-15.96 65.44-15.96L65.44-15.96Q64.72-15.96 64.28-16.34Q63.84-16.72 63.84-17.40L63.84-17.40Q63.84-18.32 64.32-18.96Q64.80-19.60 65.64-19.96L65.64-19.96Q65.48-20.12 65.20-20.12L65.20-20.12Q63.04-20.12 60.50-15.46Q57.96-10.80 55.72-3.16L55.72-3.16L54.92 0L51.44 0L56.24-17.16Q56.52-18.04 56.52-18.72L56.52-18.72Q56.52-19.64 55.68-19.64L55.68-19.64Q54.80-19.64 54.06-18.70Q53.32-17.76 52.56-15.56L52.56-15.56L52.04-14.08L51.28-14.08L52.28-17Q53.72-21.12 57.12-21.12L57.12-21.12Q59.40-21.12 59.40-18.80L59.40-18.80Q59.40-17.68 58.84-15.52L58.84-15.52L57.56-10.48Q59.72-16.28 61.62-18.70Q63.52-21.12 65.88-21.12L65.88-21.12Z M86.56-5L87.08-6.48L87.84-6.48L86.84-3.56Q85.40 0.56 82 0.56L82 0.56Q81.36 0.56 80.80 0.28Q80.24 0 79.96-0.52L79.96-0.52Q79.72-1.08 79.72-1.76L79.72-1.76Q79.72-2.80 80.28-5.04L80.28-5.04L81.52-10.04Q79.20-4.32 77-1.88Q74.80 0.56 72.20 0.56L72.20 0.56Q68.84 0.56 68.84-2.52L68.84-2.52Q68.84-3.80 69.40-5.48L69.40-5.48L73.28-17.16Q73.60-18.12 73.60-18.64L73.60-18.64Q73.60-19.64 72.64-19.64L72.64-19.64Q71.84-19.64 71.10-18.74Q70.36-17.84 69.56-15.56L69.56-15.56L69.04-14.08L68.28-14.08L69.28-17Q70.72-21.12 74.12-21.12L74.12-21.12Q76.92-21.12 76.92-18.64L76.92-18.64Q76.92-17.44 76.28-15.52L76.28-15.52L72.48-4.08Q72.08-2.88 72.08-2.08L72.08-2.08Q72.08-0.72 73.36-0.72L73.36-0.72Q74.92-0.72 76.80-3.02Q78.68-5.32 80.52-9.40Q82.36-13.48 83.72-18.60L83.72-18.60L84.20-20.56Q86.48-20.64 87.84-21.12L87.84-21.12L82.88-3.40Q82.60-2.36 82.60-1.84L82.60-1.84Q82.60-0.92 83.44-0.92L83.44-0.92Q84.32-0.92 85.06-1.86Q85.80-2.80 86.56-5L86.56-5Z"/></g>
</svg>
</g></svg></svg>